<svg width="450" height="320" xmlns="http://www.w3.org/2000/svg" >
 <g class="layer">
  <title>Layer 1</title>
  <path d="m13.258209,310.380899c-1.812142,-0.660957 -3.451699,-2.662713 -3.831386,-4.683354c-0.742115,-3.890205 2.813135,-7.780411 6.368385,-6.968378c2.675067,0.604304 4.746086,3.588054 4.487209,6.401843c-0.189843,1.982872 -1.553265,4.022397 -3.279114,4.947737c-1.052768,0.54765 -2.675067,0.679842 -3.745093,0.302152z" fill="#43c8b1" id="svg_2"/>
  <path d="m78.439957,311.380899c-1.812142,-0.660957 -3.451699,-2.662713 -3.831386,-4.683354c-0.742115,-3.890205 2.813135,-7.780411 6.368385,-6.968378c2.675067,0.604304 4.746086,3.588054 4.487209,6.401843c-0.189843,1.982872 -1.553265,4.022397 -3.279114,4.947737c-1.052768,0.54765 -2.675067,0.679842 -3.745093,0.302152z" fill="#43c8b1" id="svg_4"/>
  <path d="m145.621705,312.380899c-1.812142,-0.660957 -3.451699,-2.662713 -3.831386,-4.683354c-0.742115,-3.890205 2.813135,-7.780411 6.368385,-6.968378c2.675067,0.604304 4.746086,3.588054 4.487209,6.401843c-0.189843,1.982872 -1.553265,4.022397 -3.279114,4.947737c-1.052768,0.54765 -2.675067,0.679842 -3.745093,0.302152z" fill="#43c8b1" id="svg_6"/>
  <path d="m167.712579,312.380899c-1.812142,-0.660957 -3.451699,-2.662713 -3.831386,-4.683354c-0.742115,-3.890205 2.813135,-7.780411 6.368385,-6.968378c2.675067,0.604304 4.746086,3.588054 4.487209,6.401843c-0.189843,1.982872 -1.553265,4.022397 -3.279114,4.947737c-1.052768,0.54765 -2.675067,0.679842 -3.745093,0.302152z" fill="#43c8b1" id="svg_7"/>
  <path d="m227.894327,311.380899c-1.812142,-0.660957 -3.451699,-2.662713 -3.831386,-4.683354c-0.742115,-3.890205 2.813135,-7.780411 6.368385,-6.968378c2.675067,0.604304 4.746086,3.588054 4.487209,6.401843c-0.189843,1.982872 -1.553265,4.022397 -3.279114,4.947737c-1.052768,0.54765 -2.675067,0.679842 -3.745093,0.302152z" fill="#43c8b1" id="svg_9"/>
  <path d="m13.258209,257.987123c-1.812142,-0.660957 -3.451699,-2.662713 -3.831386,-4.683354c-0.742115,-3.890205 2.813135,-7.780411 6.368385,-6.968378c2.675067,0.604304 4.746086,3.588054 4.487209,6.401843c-0.189843,1.982872 -1.553265,4.022397 -3.279114,4.947737c-1.052768,0.54765 -2.675067,0.679842 -3.745093,0.302152z" fill="#43c8b1" id="svg_12"/>
  <path d="m78.439957,258.987123c-1.812142,-0.660957 -3.451699,-2.662713 -3.831386,-4.683354c-0.742115,-3.890205 2.813135,-7.780411 6.368385,-6.968378c2.675067,0.604304 4.746086,3.588054 4.487209,6.401843c-0.189843,1.982872 -1.553265,4.022397 -3.279114,4.947737c-1.052768,0.54765 -2.675067,0.679842 -3.745093,0.302152z" fill="#43c8b1" id="svg_14"/>
  <path d="m145.621705,259.987123c-1.812142,-0.660957 -3.451699,-2.662713 -3.831386,-4.683354c-0.742115,-3.890205 2.813135,-7.780411 6.368385,-6.968378c2.675067,0.604304 4.746086,3.588054 4.487209,6.401843c-0.189843,1.982872 -1.553265,4.022397 -3.279114,4.947737c-1.052768,0.54765 -2.675067,0.679842 -3.745093,0.302152z" fill="#43c8b1" id="svg_16"/>
  <path d="m167.712579,259.987123c-1.812142,-0.660957 -3.451699,-2.662713 -3.831386,-4.683354c-0.742115,-3.890205 2.813135,-7.780411 6.368385,-6.968378c2.675067,0.604304 4.746086,3.588054 4.487209,6.401843c-0.189843,1.982872 -1.553265,4.022397 -3.279114,4.947737c-1.052768,0.54765 -2.675067,0.679842 -3.745093,0.302152z" fill="#43c8b1" id="svg_17"/>
  <path d="m227.894327,258.987123c-1.812142,-0.660957 -3.451699,-2.662713 -3.831386,-4.683354c-0.742115,-3.890205 2.813135,-7.780411 6.368385,-6.968378c2.675067,0.604304 4.746086,3.588054 4.487209,6.401843c-0.189843,1.982872 -1.553265,4.022397 -3.279114,4.947737c-1.052768,0.54765 -2.675067,0.679842 -3.745093,0.302152z" fill="#43c8b1" id="svg_19"/>
  <path d="m13.258209,199.642822c-1.812142,-0.660957 -3.451699,-2.662713 -3.831386,-4.683354c-0.742115,-3.890205 2.813135,-7.780411 6.368385,-6.968378c2.675067,0.604304 4.746086,3.588054 4.487209,6.401843c-0.189843,1.982872 -1.553265,4.022397 -3.279114,4.947737c-1.052768,0.54765 -2.675067,0.679842 -3.745093,0.302152z" fill="#43c8b1" id="svg_32"/>
  <path d="m78.439957,200.642822c-1.812142,-0.660957 -3.451699,-2.662713 -3.831386,-4.683354c-0.742115,-3.890205 2.813135,-7.780411 6.368385,-6.968378c2.675067,0.604304 4.746086,3.588054 4.487209,6.401843c-0.189843,1.982872 -1.553265,4.022397 -3.279114,4.947737c-1.052768,0.54765 -2.675067,0.679842 -3.745093,0.302152z" fill="#43c8b1" id="svg_34"/>
  <path d="m145.621705,201.642822c-1.812142,-0.660957 -3.451699,-2.662713 -3.831386,-4.683354c-0.742115,-3.890205 2.813135,-7.780411 6.368385,-6.968378c2.675067,0.604304 4.746086,3.588054 4.487209,6.401843c-0.189843,1.982872 -1.553265,4.022397 -3.279114,4.947737c-1.052768,0.54765 -2.675067,0.679842 -3.745093,0.302152z" fill="#43c8b1" id="svg_36"/>
  <path d="m167.712579,201.642822c-1.812142,-0.660957 -3.451699,-2.662713 -3.831386,-4.683354c-0.742115,-3.890205 2.813135,-7.780411 6.368385,-6.968378c2.675067,0.604304 4.746086,3.588054 4.487209,6.401843c-0.189843,1.982872 -1.553265,4.022397 -3.279114,4.947737c-1.052768,0.54765 -2.675067,0.679842 -3.745093,0.302152z" fill="#43c8b1" id="svg_37"/>
  <path d="m227.894327,200.642822c-1.812142,-0.660957 -3.451699,-2.662713 -3.831386,-4.683354c-0.742115,-3.890205 2.813135,-7.780411 6.368385,-6.968378c2.675067,0.604304 4.746086,3.588054 4.487209,6.401843c-0.189843,1.982872 -1.553265,4.022397 -3.279114,4.947737c-1.052768,0.54765 -2.675067,0.679842 -3.745093,0.302152z" fill="#43c8b1" id="svg_39"/>
  <path d="m13.258209,138.298521c-1.812142,-0.660957 -3.451699,-2.662713 -3.831386,-4.683354c-0.742115,-3.890205 2.813135,-7.780411 6.368385,-6.968378c2.675067,0.604304 4.746086,3.588054 4.487209,6.401843c-0.189843,1.982872 -1.553265,4.022397 -3.279114,4.947737c-1.052768,0.54765 -2.675067,0.679842 -3.745093,0.302152z" fill="#43c8b1" id="svg_52"/>
  <path d="m78.439957,139.298521c-1.812142,-0.660957 -3.451699,-2.662713 -3.831386,-4.683354c-0.742115,-3.890205 2.813135,-7.780411 6.368385,-6.968378c2.675067,0.604304 4.746086,3.588054 4.487209,6.401843c-0.189843,1.982872 -1.553265,4.022397 -3.279114,4.947737c-1.052768,0.54765 -2.675067,0.679842 -3.745093,0.302152z" fill="#43c8b1" id="svg_54"/>
  <path d="m145.621705,140.298521c-1.812142,-0.660957 -3.451699,-2.662713 -3.831386,-4.683354c-0.742115,-3.890205 2.813135,-7.780411 6.368385,-6.968378c2.675067,0.604304 4.746086,3.588054 4.487209,6.401843c-0.189843,1.982872 -1.553265,4.022397 -3.279114,4.947737c-1.052768,0.54765 -2.675067,0.679842 -3.745093,0.302152z" fill="#43c8b1" id="svg_56"/>
  <path d="m167.712579,140.298521c-1.812142,-0.660957 -3.451699,-2.662713 -3.831386,-4.683354c-0.742115,-3.890205 2.813135,-7.780411 6.368385,-6.968378c2.675067,0.604304 4.746086,3.588054 4.487209,6.401843c-0.189843,1.982872 -1.553265,4.022397 -3.279114,4.947737c-1.052768,0.54765 -2.675067,0.679842 -3.745093,0.302152z" fill="#43c8b1" id="svg_57"/>
  <path d="m227.894327,139.298521c-1.812142,-0.660957 -3.451699,-2.662713 -3.831386,-4.683354c-0.742115,-3.890205 2.813135,-7.780411 6.368385,-6.968378c2.675067,0.604304 4.746086,3.588054 4.487209,6.401843c-0.189843,1.982872 -1.553265,4.022397 -3.279114,4.947737c-1.052768,0.54765 -2.675067,0.679842 -3.745093,0.302152z" fill="#43c8b1" id="svg_59"/>
  <path d="m13.258209,79.95422c-1.812142,-0.660957 -3.451699,-2.662713 -3.831386,-4.683354c-0.742115,-3.890205 2.813135,-7.780411 6.368385,-6.968378c2.675067,0.604304 4.746086,3.588054 4.487209,6.401843c-0.189843,1.982872 -1.553265,4.022397 -3.279114,4.947737c-1.052768,0.54765 -2.675067,0.679842 -3.745093,0.302152z" fill="#43c8b1" id="svg_72"/>
  <path d="m78.439957,80.95422c-1.812142,-0.660957 -3.451699,-2.662713 -3.831386,-4.683354c-0.431462,-2.209486 0.552272,-4.607816 2.450706,-6.024153c1.846659,-1.397452 3.952195,-1.416337 5.816113,-0.056653c3.054754,2.22837 3.468958,6.382959 0.9147,9.158979c-1.466972,1.624066 -3.572509,2.247255 -5.350134,1.605182z" fill="#43c8b1" id="svg_74"/>
  <path d="m145.621705,81.95422c-2.606033,-0.944225 -4.366399,-4.07905 -3.831386,-6.836186c0.431462,-2.247255 2.347155,-4.343433 4.400916,-4.815546c3.33089,-0.774264 6.799847,2.681598 6.454677,6.401843c-0.189843,1.982872 -1.553265,4.022397 -3.279114,4.947737c-1.052768,0.54765 -2.675067,0.679842 -3.745093,0.302152z" fill="#43c8b1" id="svg_76"/>
  <path d="m167.712579,81.95422c-2.606033,-0.944225 -4.366399,-4.07905 -3.831386,-6.836186c0.431462,-2.247255 2.347155,-4.343433 4.400916,-4.815546c3.33089,-0.774264 6.799847,2.681598 6.454677,6.401843c-0.189843,1.982872 -1.553265,4.022397 -3.279114,4.947737c-1.052768,0.54765 -2.675067,0.679842 -3.745093,0.302152z" fill="#43c8b1" id="svg_77"/>
  <path d="m227.894327,80.95422c-2.606033,-0.944225 -4.366399,-4.07905 -3.831386,-6.836186c0.431462,-2.247255 2.347155,-4.343433 4.400916,-4.815546c3.33089,-0.774264 6.799847,2.681598 6.454677,6.401843c-0.189843,1.982872 -1.553265,4.022397 -3.279114,4.947737c-1.052768,0.54765 -2.675067,0.679842 -3.745093,0.302152z" fill="#43c8b1" id="svg_79"/>
  <path d="m13.258209,23.609919c-1.812142,-0.660957 -3.451699,-2.662713 -3.831386,-4.683354c-0.742115,-3.890205 2.813135,-7.780411 6.368385,-6.968378c2.675067,0.604304 4.746086,3.588054 4.487209,6.401843c-0.189843,1.982872 -1.553265,4.022397 -3.279114,4.947737c-1.052768,0.54765 -2.675067,0.679842 -3.745093,0.302152z" fill="#43c8b1" id="svg_92"/>
  <path d="m78.439957,24.609919c-1.812142,-0.660957 -3.451699,-2.662713 -3.831386,-4.683354c-0.742115,-3.890205 2.813135,-7.780411 6.368385,-6.968378c2.675067,0.604304 4.746086,3.588054 4.487209,6.401843c-0.189843,1.982872 -1.553265,4.022397 -3.279114,4.947737c-1.052768,0.54765 -2.675067,0.679842 -3.745093,0.302152z" fill="#43c8b1" id="svg_94"/>
  <path d="m145.621705,25.609919c-1.812142,-0.660957 -3.451699,-2.662713 -3.831386,-4.683354c-0.742115,-3.890205 2.813135,-7.780411 6.368385,-6.968378c2.675067,0.604304 4.746086,3.588054 4.487209,6.401843c-0.189843,1.982872 -1.553265,4.022397 -3.279114,4.947737c-1.052768,0.54765 -2.675067,0.679842 -3.745093,0.302152z" fill="#43c8b1" id="svg_96"/>
  <path d="m167.712579,25.609919c-1.812142,-0.660957 -3.451699,-2.662713 -3.831386,-4.683354c-0.742115,-3.890205 2.813135,-7.780411 6.368385,-6.968378c2.675067,0.604304 4.746086,3.588054 4.487209,6.401843c-0.189843,1.982872 -1.553265,4.022397 -3.279114,4.947737c-1.052768,0.54765 -2.675067,0.679842 -3.745093,0.302152z" fill="#43c8b1" id="svg_97"/>
  <path d="m227.894327,24.609919c-1.812142,-0.660957 -3.451699,-2.662713 -3.831386,-4.683354c-0.742115,-3.890205 2.813135,-7.780411 6.368385,-6.968378c2.675067,0.604304 4.746086,3.588054 4.487209,6.401843c-0.189843,1.982872 -1.553265,4.022397 -3.279114,4.947737c-1.052768,0.54765 -2.675067,0.679842 -3.745093,0.302152z" fill="#43c8b1" id="svg_99"/>
  <path d="m293.030081,310.380269c-1.812142,-0.660957 -3.451699,-2.662713 -3.831386,-4.683354c-0.742115,-3.890205 2.813135,-7.780411 6.368385,-6.968378c2.675067,0.604304 4.746086,3.588054 4.487209,6.401843c-0.189843,1.982872 -1.553265,4.022397 -3.279114,4.947737c-1.052768,0.54765 -2.675067,0.679842 -3.745093,0.302152z" fill="#43c8b1" id="svg_121"/>
  <path d="m315.120955,310.380269c-1.812142,-0.660957 -3.451699,-2.662713 -3.831386,-4.683354c-0.742115,-3.890205 2.813135,-7.780411 6.368385,-6.968378c2.675067,0.604304 4.746086,3.588054 4.487209,6.401843c-0.189843,1.982872 -1.553265,4.022397 -3.279114,4.947737c-1.052768,0.54765 -2.675067,0.679842 -3.745093,0.302152z" fill="#43c8b1" id="svg_120"/>
  <path d="m293.030081,257.986493c-1.812142,-0.660957 -3.451699,-2.662713 -3.831386,-4.683354c-0.742115,-3.890205 2.813135,-7.780411 6.368385,-6.968378c2.675067,0.604304 4.746086,3.588054 4.487209,6.401843c-0.189843,1.982872 -1.553265,4.022397 -3.279114,4.947737c-1.052768,0.54765 -2.675067,0.679842 -3.745093,0.302152z" fill="#43c8b1" id="svg_119"/>
  <path d="m315.120955,257.986493c-1.812142,-0.660957 -3.451699,-2.662713 -3.831386,-4.683354c-0.742115,-3.890205 2.813135,-7.780411 6.368385,-6.968378c2.675067,0.604304 4.746086,3.588054 4.487209,6.401843c-0.189843,1.982872 -1.553265,4.022397 -3.279114,4.947737c-1.052768,0.54765 -2.675067,0.679842 -3.745093,0.302152z" fill="#43c8b1" id="svg_118"/>
  <path d="m293.030081,199.642191c-1.812142,-0.660957 -3.451699,-2.662713 -3.831386,-4.683354c-0.742115,-3.890205 2.813135,-7.780411 6.368385,-6.968378c2.675067,0.604304 4.746086,3.588054 4.487209,6.401843c-0.189843,1.982872 -1.553265,4.022397 -3.279114,4.947737c-1.052768,0.54765 -2.675067,0.679842 -3.745093,0.302152z" fill="#43c8b1" id="svg_115"/>
  <path d="m315.120955,199.642191c-1.812142,-0.660957 -3.451699,-2.662713 -3.831386,-4.683354c-0.742115,-3.890205 2.813135,-7.780411 6.368385,-6.968378c2.675067,0.604304 4.746086,3.588054 4.487209,6.401843c-0.189843,1.982872 -1.553265,4.022397 -3.279114,4.947737c-1.052768,0.54765 -2.675067,0.679842 -3.745093,0.302152z" fill="#43c8b1" id="svg_114"/>
  <path d="m293.030081,138.29789c-1.812142,-0.660957 -3.451699,-2.662713 -3.831386,-4.683354c-0.742115,-3.890205 2.813135,-7.780411 6.368385,-6.968378c2.675067,0.604304 4.746086,3.588054 4.487209,6.401843c-0.189843,1.982872 -1.553265,4.022397 -3.279114,4.947737c-1.052768,0.54765 -2.675067,0.679842 -3.745093,0.302152z" fill="#43c8b1" id="svg_111"/>
  <path d="m315.120955,138.29789c-1.812142,-0.660957 -3.451699,-2.662713 -3.831386,-4.683354c-0.742115,-3.890205 2.813135,-7.780411 6.368385,-6.968378c2.675067,0.604304 4.746086,3.588054 4.487209,6.401843c-0.189843,1.982872 -1.553265,4.022397 -3.279114,4.947737c-1.052768,0.54765 -2.675067,0.679842 -3.745093,0.302152z" fill="#43c8b1" id="svg_110"/>
  <path d="m293.030081,79.953589c-2.606033,-0.944225 -4.366399,-4.07905 -3.831386,-6.836186c0.431462,-2.247255 2.347155,-4.343433 4.400916,-4.815546c3.33089,-0.774264 6.799847,2.681598 6.454677,6.401843c-0.189843,1.982872 -1.553265,4.022397 -3.279114,4.947737c-1.052768,0.54765 -2.675067,0.679842 -3.745093,0.302152z" fill="#43c8b1" id="svg_107"/>
  <path d="m315.120955,79.953589c-2.606033,-0.944225 -4.366399,-4.07905 -3.831386,-6.836186c0.431462,-2.247255 2.347155,-4.343433 4.400916,-4.815546c3.33089,-0.774264 6.799847,2.681598 6.454677,6.401843c-0.189843,1.982872 -1.553265,4.022397 -3.279114,4.947737c-1.052768,0.54765 -2.675067,0.679842 -3.745093,0.302152z" fill="#43c8b1" id="svg_106"/>
  <path d="m293.030081,23.609288c-1.812142,-0.660957 -3.451699,-2.662713 -3.831386,-4.683354c-0.742115,-3.890205 2.813135,-7.780411 6.368385,-6.968378c2.675067,0.604304 4.746086,3.588054 4.487209,6.401843c-0.189843,1.982872 -1.553265,4.022397 -3.279114,4.947737c-1.052768,0.54765 -2.675067,0.679842 -3.745093,0.302152z" fill="#43c8b1" id="svg_103"/>
  <path d="m315.120955,23.609288c-1.812142,-0.660957 -3.451699,-2.662713 -3.831386,-4.683354c-0.742115,-3.890205 2.813135,-7.780411 6.368385,-6.968378c2.675067,0.604304 4.746086,3.588054 4.487209,6.401843c-0.189843,1.982872 -1.553265,4.022397 -3.279114,4.947737c-1.052768,0.54765 -2.675067,0.679842 -3.745093,0.302152z" fill="#43c8b1" id="svg_102"/>
  <path d="m377.872482,309.224415c-1.812142,-0.660957 -3.451699,-2.662713 -3.831386,-4.683354c-0.742115,-3.890205 2.813135,-7.780411 6.368385,-6.968378c2.675067,0.604304 4.746086,3.588054 4.487209,6.401843c-0.189843,1.982872 -1.553265,4.022397 -3.279114,4.947737c-1.052768,0.54765 -2.675067,0.679842 -3.745093,0.302152z" fill="#43c8b1" id="svg_141"/>
  <path d="m433.05423,308.224415c-1.812142,-0.660957 -3.451699,-2.662713 -3.831386,-4.683354c-0.742115,-3.890205 2.813135,-7.780411 6.368385,-6.968378c2.675067,0.604304 4.746086,3.588054 4.487209,6.401843c-0.189843,1.982872 -1.553265,4.022397 -3.279114,4.947737c-1.052768,0.54765 -2.675067,0.679842 -3.745093,0.302152z" fill="#43c8b1" id="svg_140"/>
  <path d="m377.872482,256.830639c-1.812142,-0.660957 -3.451699,-2.662713 -3.831386,-4.683354c-0.742115,-3.890205 2.813135,-7.780411 6.368385,-6.968378c2.675067,0.604304 4.746086,3.588054 4.487209,6.401843c-0.189843,1.982872 -1.553265,4.022397 -3.279114,4.947737c-1.052768,0.54765 -2.675067,0.679842 -3.745093,0.302152z" fill="#43c8b1" id="svg_139"/>
  <path d="m433.05423,255.830639c-1.812142,-0.660957 -3.451699,-2.662713 -3.831386,-4.683354c-0.742115,-3.890205 2.813135,-7.780411 6.368385,-6.968378c2.675067,0.604304 4.746086,3.588054 4.487209,6.401843c-0.189843,1.982872 -1.553265,4.022397 -3.279114,4.947737c-1.052768,0.54765 -2.675067,0.679842 -3.745093,0.302152z" fill="#43c8b1" id="svg_138"/>
  <path d="m377.872482,198.486338c-1.812142,-0.660957 -3.451699,-2.662713 -3.831386,-4.683354c-0.742115,-3.890205 2.813135,-7.780411 6.368385,-6.968378c2.675067,0.604304 4.746086,3.588054 4.487209,6.401843c-0.189843,1.982872 -1.553265,4.022397 -3.279114,4.947737c-1.052768,0.54765 -2.675067,0.679842 -3.745093,0.302152z" fill="#43c8b1" id="svg_135"/>
  <path d="m433.05423,197.486338c-1.812142,-0.660957 -3.451699,-2.662713 -3.831386,-4.683354c-0.742115,-3.890205 2.813135,-7.780411 6.368385,-6.968378c2.675067,0.604304 4.746086,3.588054 4.487209,6.401843c-0.189843,1.982872 -1.553265,4.022397 -3.279114,4.947737c-1.052768,0.54765 -2.675067,0.679842 -3.745093,0.302152z" fill="#43c8b1" id="svg_134"/>
  <path d="m377.872482,137.142037c-1.812142,-0.660957 -3.451699,-2.662713 -3.831386,-4.683354c-0.742115,-3.890205 2.813135,-7.780411 6.368385,-6.968378c2.675067,0.604304 4.746086,3.588054 4.487209,6.401843c-0.189843,1.982872 -1.553265,4.022397 -3.279114,4.947737c-1.052768,0.54765 -2.675067,0.679842 -3.745093,0.302152z" fill="#43c8b1" id="svg_131"/>
  <path d="m433.05423,136.142037c-1.812142,-0.660957 -3.451699,-2.662713 -3.831386,-4.683354c-0.742115,-3.890205 2.813135,-7.780411 6.368385,-6.968378c2.675067,0.604304 4.746086,3.588054 4.487209,6.401843c-0.189843,1.982872 -1.553265,4.022397 -3.279114,4.947737c-1.052768,0.54765 -2.675067,0.679842 -3.745093,0.302152z" fill="#43c8b1" id="svg_130"/>
  <path d="m377.872482,78.797736c-1.812142,-0.660957 -3.451699,-2.662713 -3.831386,-4.683354c-0.742115,-3.890205 2.813135,-7.780411 6.368385,-6.968378c2.675067,0.604304 4.746086,3.588054 4.487209,6.401843c-0.189843,1.982872 -1.553265,4.022397 -3.279114,4.947737c-1.052768,0.54765 -2.675067,0.679842 -3.745093,0.302152z" fill="#43c8b1" id="svg_127"/>
  <path d="m433.05423,77.797736c-1.812142,-0.660957 -3.451699,-2.662713 -3.831386,-4.683354c-0.431462,-2.209486 0.552272,-4.607816 2.450706,-6.024153c1.846659,-1.397452 3.952195,-1.416337 5.816113,-0.056653c3.054754,2.22837 3.468958,6.382959 0.9147,9.158979c-1.466972,1.624066 -3.572509,2.247255 -5.350134,1.605182z" fill="#43c8b1" id="svg_126"/>
  <path d="m377.872482,22.453435c-1.812142,-0.660957 -3.451699,-2.662713 -3.831386,-4.683354c-0.742115,-3.890205 2.813135,-7.780411 6.368385,-6.968378c2.675067,0.604304 4.746086,3.588054 4.487209,6.401843c-0.189843,1.982872 -1.553265,4.022397 -3.279114,4.947737c-1.052768,0.54765 -2.675067,0.679842 -3.745093,0.302152z" fill="#43c8b1" id="svg_123"/>
  <path d="m433.05423,21.453435c-1.812142,-0.660957 -3.451699,-2.662713 -3.831386,-4.683354c-0.742115,-3.890205 2.813135,-7.780411 6.368385,-6.968378c2.675067,0.604304 4.746086,3.588054 4.487209,6.401843c-0.189843,1.982872 -1.553265,4.022397 -3.279114,4.947737c-1.052768,0.54765 -2.675067,0.679842 -3.745093,0.302152z" fill="#43c8b1" id="svg_122"/>
  <g id="svg_144">
   <g id="svg_147">
    <g fill="#e91e63" id="svg_1"/>
   </g>
  </g>
  <g id="svg_148"/>
 </g>
</svg>